# xmcd
#
# Track frame offsets:
#	182
#	16067
#	33665
#
# Disc length: 681 seconds
#
# Revision: 0
# Processed by: cddbd v1.4PL0 Copyright (c) Steve Scherf et al.
# Submitted via: dBpowerAMP V4.0
#
DISCID=1902a703
DTITLE=The Wilkinsons - Fly (Angel Song)
DYEAR=1900
DGENRE=Country
TTITLE0=Fly (the angel version)
TTITLE1=26 cents (special acoustic version)
TTITLE2=26 cents (music track only)
EXTD=Single
EXTT0=
EXTT1=
EXTT2=
PLAYORDER=
